<?xml version="1.0" encoding="UTF-8" standalone="no"?>
<!DOCTYPE svg PUBLIC "-//W3C//DTD SVG 1.1//EN"
 "http://www.w3.org/Graphics/SVG/1.1/DTD/svg11.dtd">
<!-- Generated by graphviz version 2.43.0 (0)
 -->
<!-- Title: g Pages: 1 -->
<svg width="886pt" height="298pt"
 viewBox="0.00 0.00 886.00 298.00" xmlns="http://www.w3.org/2000/svg" xmlns:xlink="http://www.w3.org/1999/xlink">
<g id="graph0" class="graph" transform="scale(1 1) rotate(0) translate(4 294)">
<title>g</title>
<polygon fill="#0d1117" stroke="transparent" points="-4,4 -4,-294 882,-294 882,4 -4,4"/>
<text text-anchor="middle" x="439" y="-270" font-family="Helvetica,sans-Serif" font-size="20.00" fill="#e6edf3">Experiments at a glance</text>
<g id="clust1" class="cluster">
<title>cluster_a</title>
<path fill="#0d1117" stroke="#58a6ff" d="M25,-8C25,-8 858,-8 858,-8 864,-8 870,-14 870,-20 870,-20 870,-114 870,-114 870,-120 864,-126 858,-126 858,-126 25,-126 25,-126 19,-126 13,-120 13,-114 13,-114 13,-20 13,-20 13,-14 19,-8 25,-8"/>
<text text-anchor="middle" x="441.5" y="-106" font-family="Helvetica,sans-Serif" font-size="20.00" fill="#58a6ff">parity&#45;cot &#160;(Kim &amp; Suzuki, ICLR 2025)</text>
</g>
<g id="clust2" class="cluster">
<title>cluster_b</title>
<path fill="#0d1117" stroke="#bc8cff" stroke-dasharray="5,2" d="M20,-134C20,-134 829.5,-134 829.5,-134 835.5,-134 841.5,-140 841.5,-146 841.5,-146 841.5,-240 841.5,-240 841.5,-246 835.5,-252 829.5,-252 829.5,-252 20,-252 20,-252 14,-252 8,-246 8,-240 8,-240 8,-146 8,-146 8,-140 14,-134 20,-134"/>
<text text-anchor="middle" x="424.75" y="-232" font-family="Helvetica,sans-Serif" font-size="20.00" fill="#bc8cff">length&#45;generalization &#160;(Zhou et al. 2023)</text>
</g>
<!-- a1 -->
<g id="node1" class="node">
<title>a1</title>
<path fill="#161b22" stroke="#30363d" stroke-width="2" d="M237,-87.5C237,-87.5 33,-87.5 33,-87.5 27,-87.5 21,-81.5 21,-75.5 21,-75.5 21,-28.5 21,-28.5 21,-22.5 27,-16.5 33,-16.5 33,-16.5 237,-16.5 237,-16.5 243,-16.5 249,-22.5 249,-28.5 249,-28.5 249,-75.5 249,-75.5 249,-81.5 243,-87.5 237,-87.5"/>
<text text-anchor="middle" x="135" y="-63.3" font-family="Helvetica,sans-Serif" font-size="14.00" fill="#e6edf3">1&#45;layer transformer d=64</text>
<text text-anchor="middle" x="135" y="-48.3" font-family="Helvetica,sans-Serif" font-size="14.00" fill="#e6edf3">n in {16,32,64}, k in {4,6}</text>
<text text-anchor="middle" x="135" y="-33.3" font-family="Helvetica,sans-Serif" font-size="14.00" fill="#e6edf3">300 steps, 3 seeds</text>
</g>
<!-- a2 -->
<g id="node2" class="node">
<title>a2</title>
<path fill="#13294d" stroke="#58a6ff" stroke-width="2" d="M526,-80C526,-80 310,-80 310,-80 304,-80 298,-74 298,-68 298,-68 298,-36 298,-36 298,-30 304,-24 310,-24 310,-24 526,-24 526,-24 532,-24 538,-30 538,-36 538,-36 538,-68 538,-68 538,-74 532,-80 526,-80"/>
<text text-anchor="middle" x="418" y="-55.8" font-family="Helvetica,sans-Serif" font-size="14.00" fill="#e6edf3">direct &#160;vs &#160;CoT teacher&#45;forced</text>
<text text-anchor="middle" x="418" y="-40.8" font-family="Helvetica,sans-Serif" font-size="14.00" fill="#e6edf3">(held&#45;out accuracy)</text>
</g>
<!-- a1&#45;&gt;a2 -->
<g id="edge1" class="edge">
<title>a1&#45;&gt;a2</title>
<path fill="none" stroke="#8b949e" stroke-width="1.6" d="M249.08,-52C262.09,-52 275.43,-52 288.62,-52"/>
<polygon fill="#8b949e" stroke="#8b949e" stroke-width="1.6" points="288.72,-55.15 297.72,-52 288.72,-48.85 288.72,-55.15"/>
</g>
<!-- a3 -->
<g id="node3" class="node">
<title>a3</title>
<path fill="#161b22" stroke="#3fb950" stroke-width="2" d="M850,-80C850,-80 594,-80 594,-80 588,-80 582,-74 582,-68 582,-68 582,-36 582,-36 582,-30 588,-24 594,-24 594,-24 850,-24 850,-24 856,-24 862,-30 862,-36 862,-36 862,-68 862,-68 862,-74 856,-80 850,-80"/>
<text text-anchor="middle" x="722" y="-55.8" font-family="Helvetica,sans-Serif" font-size="14.00" fill="#e6edf3">Direct hits chance at n=32,k=6</text>
<text text-anchor="middle" x="722" y="-40.8" font-family="Helvetica,sans-Serif" font-size="14.00" fill="#e6edf3">and n=64; CoT = 1.00 everywhere</text>
</g>
<!-- a2&#45;&gt;a3 -->
<g id="edge2" class="edge">
<title>a2&#45;&gt;a3</title>
<path fill="none" stroke="#8b949e" stroke-width="1.6" d="M538.36,-52C549.61,-52 561.11,-52 572.59,-52"/>
<polygon fill="#8b949e" stroke="#8b949e" stroke-width="1.6" points="572.79,-55.15 581.79,-52 572.79,-48.85 572.79,-55.15"/>
</g>
<!-- b1 -->
<g id="node4" class="node">
<title>b1</title>
<path fill="#161b22" stroke="#30363d" stroke-width="2" d="M242,-213.5C242,-213.5 28,-213.5 28,-213.5 22,-213.5 16,-207.5 16,-201.5 16,-201.5 16,-154.5 16,-154.5 16,-148.5 22,-142.5 28,-142.5 28,-142.5 242,-142.5 242,-142.5 248,-142.5 254,-148.5 254,-154.5 254,-154.5 254,-201.5 254,-201.5 254,-207.5 248,-213.5 242,-213.5"/>
<text text-anchor="middle" x="135" y="-189.3" font-family="Helvetica,sans-Serif" font-size="14.00" fill="#e6edf3">4&#45;layer decoder d=128</text>
<text text-anchor="middle" x="135" y="-174.3" font-family="Helvetica,sans-Serif" font-size="14.00" fill="#e6edf3">train len 1&#45;20, test to 60</text>
<text text-anchor="middle" x="135" y="-159.3" font-family="Helvetica,sans-Serif" font-size="14.00" fill="#e6edf3">copy / reverse / sort, 2 seeds</text>
</g>
<!-- b2 -->
<g id="node5" class="node">
<title>b2</title>
<path fill="#13294d" stroke="#58a6ff" stroke-width="2" d="M534,-206C534,-206 302,-206 302,-206 296,-206 290,-200 290,-194 290,-194 290,-162 290,-162 290,-156 296,-150 302,-150 302,-150 534,-150 534,-150 540,-150 546,-156 546,-162 546,-162 546,-194 546,-194 546,-200 540,-206 534,-206"/>
<text text-anchor="middle" x="418" y="-181.8" font-family="Helvetica,sans-Serif" font-size="14.00" fill="#e6edf3">learned abs &#160;vs &#160;RoPE &#160;vs &#160;NoPE</text>
<text text-anchor="middle" x="418" y="-166.8" font-family="Helvetica,sans-Serif" font-size="14.00" fill="#e6edf3">(exact match, held&#45;out)</text>
</g>
<!-- b1&#45;&gt;b2 -->
<g id="edge3" class="edge">
<title>b1&#45;&gt;b2</title>
<path fill="none" stroke="#8b949e" stroke-width="1.6" d="M254.35,-178C263.04,-178 271.84,-178 280.61,-178"/>
<polygon fill="#8b949e" stroke="#8b949e" stroke-width="1.6" points="280.75,-181.15 289.75,-178 280.75,-174.85 280.75,-181.15"/>
</g>
<!-- b3 -->
<g id="node6" class="node">
<title>b3</title>
<path fill="#161b22" stroke="#d29922" stroke-width="2" d="M821.5,-206C821.5,-206 622.5,-206 622.5,-206 616.5,-206 610.5,-200 610.5,-194 610.5,-194 610.5,-162 610.5,-162 610.5,-156 616.5,-150 622.5,-150 622.5,-150 821.5,-150 821.5,-150 827.5,-150 833.5,-156 833.5,-162 833.5,-162 833.5,-194 833.5,-194 833.5,-200 827.5,-206 821.5,-206"/>
<text text-anchor="middle" x="722" y="-181.8" font-family="Helvetica,sans-Serif" font-size="14.00" fill="#e6edf3">Sort+NoPE: 0.8 at len 60</text>
<text text-anchor="middle" x="722" y="-166.8" font-family="Helvetica,sans-Serif" font-size="14.00" fill="#e6edf3">Others fail beyond ~25&#45;30</text>
</g>
<!-- b2&#45;&gt;b3 -->
<g id="edge4" class="edge">
<title>b2&#45;&gt;b3</title>
<path fill="none" stroke="#8b949e" stroke-width="1.6" d="M546.2,-178C564.32,-178 582.91,-178 600.89,-178"/>
<polygon fill="#8b949e" stroke="#8b949e" stroke-width="1.6" points="601.23,-181.15 610.23,-178 601.23,-174.85 601.23,-181.15"/>
</g>
</g>
</svg>
